<svg width="17" height="16" viewBox="0 0 17 16" xmlns="http://www.w3.org/2000/svg"><title>Shape</title><path d="M15.98 5.474v-.34l-.068-.068h-.068L8.364.102a.737.737 0 0 0-.748 0L.136 5.066H.068L0 5.134v5.712l.068.068h.068l7.48 4.964c.136.068.272.136.408.136.136 0 .272-.068.408-.136l7.48-4.964h.068l.068-.068V5.542c-.068 0-.068 0-.068-.068zM8.5 1.938l5.508 3.672-2.448 1.632-3.06-2.04V1.938zm-1.36 0v3.264l-3.06 2.04-2.448-1.7L7.14 1.938zM1.088 6.902l1.7 1.156L1.02 9.214V6.902h.068zm6.052 7.276l-5.508-3.672L4.08 8.874l3.06 2.04v3.264zm.68-4.488L5.372 8.058 7.82 6.426l2.448 1.632L7.82 9.69zm.68 4.488v-3.264l3.06-2.04 2.448 1.632L8.5 14.178zm6.052-4.964l-1.7-1.156 1.768-1.156v2.312h-.068z" fill="#FFF" fill-rule="evenodd"/></svg>