<svg width="16" height="16" viewBox="0 0 16 16" xmlns="http://www.w3.org/2000/svg"><title>Shape</title><path d="M8 0C3.6 0 0 3.6 0 8a7.991 7.991 0 0 0 5.467 7.6c.4.067.533-.2.533-.4v-1.333c-2.2.466-2.667-1.067-2.667-1.067-.333-.933-.866-1.2-.866-1.2-.8-.467 0-.467 0-.467.8.067 1.2.8 1.2.8.733 1.2 1.866.867 2.333.667.067-.533.267-.867.533-1.067-1.8-.2-3.666-.866-3.666-3.933 0-.867.333-1.6.8-2.133 0-.267-.334-1.067.133-2.134 0 0 .667-.2 2.2.8.667-.2 1.333-.266 2-.266s1.333.066 2 .266c1.533-1.066 2.2-.8 2.2-.8.467 1.134.133 1.934.067 2.134.533.533.8 1.266.8 2.133 0 3.067-1.867 3.733-3.667 3.933.267.267.533.734.533 1.467v2.2c0 .2.134.467.534.4A7.991 7.991 0 0 0 15.933 8C16 3.6 12.4 0 8 0z" fill="#FFF" fill-rule="evenodd"/></svg>